<svg width="28" height="28" viewBox="0 0 28 28" fill="none" xmlns="http://www.w3.org/2000/svg">
<path d="M14 3C14.4142 3 14.7892 3.21071 15 3.55279L18.7071 7.29289C19.0976 7.68342 19.0976 8.31658 18.7071 8.70711C18.3166 9.09763 17.6834 9.09763 17.2929 8.70711L15 6.41421V16C15 16.5523 14.5523 17 14 17C13.4477 17 13 16.5523 13 16V6.41421L10.7071 8.70711C10.3166 9.09763 9.68342 9.09763 9.29289 8.70711C8.90237 8.31658 8.90237 7.68342 9.29289 7.29289L13 3.55279C13.2108 3.21071 13.5858 3 14 3Z" fill="white"/>
<path d="M8 13C8.55228 13 9 13.4477 9 14V22H19V14C19 13.4477 19.4477 13 20 13C20.5523 13 21 13.4477 21 14V23C21 23.5523 20.5523 24 20 24H8C7.44772 24 7 23.5523 7 23V14C7 13.4477 7.44772 13 8 13Z" fill="white"/>
</svg>
