<svg width="28" height="28" viewBox="0 0 28 28" fill="none" xmlns="http://www.w3.org/2000/svg">
<path d="M22.6461 21.6102C22.8414 21.8055 22.8414 22.1221 22.6461 22.3173C22.4509 22.5126 22.1343 22.5126 21.939 22.3173L6.64645 7.02477C6.45118 6.82951 6.45118 6.51293 6.64645 6.31766C6.84171 6.1224 7.15829 6.1224 7.35355 6.31766L22.6461 21.6102Z" fill="white"/>
<path d="M9.06079 12.0748L6.00122 15.5719H9.80005C10.352 15.5723 10.8 16.0198 10.8 16.5719V24.3405L15.7122 18.7262L16.4202 19.4342L11.552 24.9996C10.944 25.6939 9.80038 25.2634 9.80005 24.3405V16.5719H6.00122C5.14231 16.5716 4.6837 15.5592 5.24927 14.9127L8.35181 11.3658L9.06079 12.0748ZM16.2473 2.34338C16.8554 1.64892 17.9993 2.07933 17.9993 3.00256V10.7711H21.7981C22.6569 10.7716 23.1157 11.7839 22.55 12.4303L19.0598 16.4176L18.3518 15.7096L21.7981 11.7711H17.9993C17.4473 11.7709 16.9995 11.3231 16.9993 10.7711V3.00256L11.7004 9.05823L10.9915 8.34924L16.2473 2.34338Z" fill="white"/>
</svg>
