<svg width="28" height="28" viewBox="0 0 28 28" fill="none" xmlns="http://www.w3.org/2000/svg">
<path d="M9 12V9.5C9 6.74 11.24 4.5 14 4.5C16.76 4.5 19 6.74 19 9.5V12H17V9.5C17 7.84 15.66 6.5 14 6.5C12.34 6.5 11 7.84 11 9.5V12H9Z" fill="#666666"/>
<path d="M7.5 12H20.5C21.33 12 22 12.67 22 13.5V21C22 21.83 21.33 22.5 20.5 22.5H7.5C6.67 22.5 6 21.83 6 21V13.5C6 12.67 6.67 12 7.5 12ZM14 15.5C13.17 15.5 12.5 16.17 12.5 17C12.5 17.52 12.76 17.98 13.16 18.25V19.5H14.84V18.25C15.24 17.98 15.5 17.52 15.5 17C15.5 16.17 14.83 15.5 14 15.5Z" fill="#666666"/>
</svg>
