<svg width="28" height="28" viewBox="0 0 28 28" fill="none" xmlns="http://www.w3.org/2000/svg">
<path d="M14 4.5C14.62 4.5 15.19 4.83 15.5 5.37L24 20.12C24.31 20.66 24.31 21.33 23.99 21.87C23.68 22.41 23.1 22.75 22.47 22.75H5.53C4.9 22.75 4.32 22.41 4.01 21.87C3.69 21.33 3.69 20.66 4 20.12L12.5 5.37C12.81 4.83 13.38 4.5 14 4.5ZM14 10C13.45 10 13 10.45 13 11V15.25C13 15.8 13.45 16.25 14 16.25C14.55 16.25 15 15.8 15 15.25V11C15 10.45 14.55 10 14 10ZM14 18.25C13.31 18.25 12.75 18.81 12.75 19.5C12.75 20.19 13.31 20.75 14 20.75C14.69 20.75 15.25 20.19 15.25 19.5C15.25 18.81 14.69 18.25 14 18.25Z" fill="#666666"/>
</svg>
