<svg width="28" height="28" viewBox="0 0 28 28" fill="none" xmlns="http://www.w3.org/2000/svg">
<path d="M22.9369 8.28174C22.9804 7.95665 23.3202 7.76117 23.6234 7.88623L27.3334 9.41553C27.7169 9.57369 27.7521 10.1035 27.3929 10.311L25.6849 11.2964C26.1173 13.1534 26.1152 15.1396 25.5873 17.1099C23.872 23.5113 17.2924 27.3102 10.891 25.5952C8.77906 25.0293 6.95196 23.9315 5.51111 22.4878L5.81482 21.355C7.19053 22.889 9.01101 24.0563 11.1498 24.6294C17.0178 26.2015 23.0491 22.7191 24.6215 16.8511C25.0771 15.1504 25.1041 13.4371 24.7748 11.8218L23.1527 12.7593C22.7934 12.9667 22.3518 12.6715 22.4066 12.2603L22.9369 8.28174ZM2.40564 10.8979C4.12114 4.49669 10.7005 0.698382 17.1019 2.41357C19.2139 2.97947 21.04 4.07724 22.4808 5.521L22.1781 6.65381C20.8024 5.11979 18.9819 3.95248 16.8431 3.37939C10.9752 1.80714 4.94402 5.28895 3.37146 11.1567C2.91586 12.857 2.88629 14.5709 3.21521 16.186L4.84021 15.2485C5.19936 15.0414 5.64065 15.3366 5.5863 15.7476L5.05603 19.7261C5.0127 20.0513 4.67284 20.2477 4.36951 20.1226L0.659546 18.5923C0.275964 18.4341 0.240645 17.9042 0.599976 17.6968L2.30505 16.7114C1.8731 14.8547 1.8778 12.8679 2.40564 10.8979Z" fill="white"/>
</svg>
